<?xml version="1.0" encoding="UTF-8"?>
<svg id="Layer_2" data-name="Layer 2" xmlns="http://www.w3.org/2000/svg" viewBox="0 0 357.16 321.21">
  <defs>
    <style>
      .cls-1 {
        fill: #231f20;
        stroke-width: 0px;
      }
    </style>
  </defs>
  <g id="Layer_1-2" data-name="Layer 1">
    <g>
      <path class="cls-1" d="m33.03,218.97c-7.86-3.89-14.16-9.88-18.91-17.97-4.75-8.09-7.12-18.13-7.12-30.11,0-4.36.39-11.94,1.17-22.76.78-10.82,1.63-21.44,2.57-31.87.31-2.64.54-5.29.7-7.94l27.31,2.33c-.78,13.7-1.32,22.1-1.63,25.21-.78,13.23-1.17,22.1-1.17,26.61,0,5.45,2.41,9.3,7.24,11.55,4.82,2.26,10.81,3.38,17.97,3.38s14.55-.54,22.18-1.63c7.62-1.09,13.85-2.41,18.68-3.97l-2.33-137.96,34.55-3.5v137.03c0,12.76-3.35,23.42-10.04,31.98-6.69,8.56-15.68,14.94-26.96,19.14-11.29,4.2-24.01,6.3-38.17,6.3-9.49,0-18.17-1.95-26.03-5.84Z"/>
      <path class="cls-1" d="m172.51,190.25c-6.38-2.33-11.55-6.85-15.52-13.54-3.97-6.69-6.11-16.11-6.42-28.25l-3.5-114.62,34.55-3.5v109.02c0,2.02.35,3.5,1.05,4.44.7.93,2.02,1.6,3.97,1.98,1.94.39,4.94.58,8.99.58l2.33,2.33v42.72l-2.33,2.33c-9.03,0-16.73-1.17-23.11-3.5Z"/>
      <path class="cls-1" d="m195.62,146.37h65.36l-2.57-55.56,35.02-2.33v55.09c0,11.99-2.57,21.59-7.7,28.83-5.14,7.24-12.49,12.49-22.06,15.76-9.57,3.27-21.59,5.14-36.07,5.6h-31.98v-47.39Zm37.82,66.3v31.75h-37.82v-31.75h37.82Zm26.14,0v31.75h-37.82v-31.75h37.82Z"/>
      <path class="cls-1" d="m305.8,199.24c6.54-3.19,11.01-5.95,13.42-8.29,2.41-2.33,3.7-4.44,3.85-6.3l.23-9.8c.15-4.67,2.76-10.12,7.82-16.34,5.06-6.22,9.88-9.3,14.47-9.22,4.59.08,6.89,5.33,6.89,15.76,0,12.3-1.25,23.54-3.73,33.73-2.49,10.19-8.83,20.35-19.03,30.46-10.19,10.11-25.64,18.13-46.34,24.04l-4.9-43.19c11.67-4.05,20.78-7.67,27.31-10.86Zm9.57-104.23l34.32-3.27c1.87,33.62,2.8,58.05,2.8,73.3s-2.41,26.07-7.24,33.38c-4.83,7.31-9.96,10.66-15.41,10.04-5.45-.62-8.33-3.97-8.64-10.04l-5.84-103.41Z"/>
    </g>
  </g>
</svg>