<?xml version="1.0" encoding="UTF-8"?>
<svg id="Layer_2" data-name="Layer 2" xmlns="http://www.w3.org/2000/svg" viewBox="0 0 500.63 498.76">
  <defs>
    <style>
      .cls-1 {
        stroke-width: 0px;
      }
    </style>
  </defs>
  <g id="Layer_1-2" data-name="Layer 1">
    <g>
      <path class="cls-1" d="m500.13,330.1c0,11.78.71,23.61-.17,35.32-1.19,15.79-8.93,28.6-21.19,38.54-11.12,9.02-24.23,13.36-38.26,14.42-11.63.88-23.34.7-35.02.95-3.91.08-5.3,1.1-5.88,4.97-1.78,11.76-5.37,22.85-12.06,32.8-9.34,13.89-22.52,22.91-37.64,29.32-15.96,6.76-32.82,9.84-49.99,11.34-6.05.53-12.13.73-18.2.98-3.59.15-5.26-1.5-5.27-5.08-.02-12.64-.02-25.28,0-37.92,0-3.58,1.61-5.08,5.24-5.15,14.57-.29,29-1.68,42.93-6.25,7.29-2.39,14.1-5.8,19.3-11.59,2.03-2.27,3.56-5.13,4.78-7.95,1.36-3.14-.39-5.39-3.83-5.43-7.22-.08-14.46.15-21.67-.19-18.54-.88-35.12-6.85-48.48-20.15-8.63-8.59-13.49-19.29-15.03-31.24-2.39-18.56-.15-36.56,8.43-53.42,10.22-20.1,26.28-32.37,48.89-35.11,16.95-2.05,33.41-.29,48.33,8.9,18.14,11.17,28.75,27.63,33.2,48.27,2.08,9.64,1.99,19.43,1.97,29.21,0,4.17,1.48,5.74,5.58,5.67,8.93-.14,17.87-.17,26.78-.62,5.01-.25,10.01-1.12,13.92-4.88,2.63-2.53,3.8-5.59,3.83-9.16.1-15.01.19-30.03.26-45.04.01-2.78,1.44-4.5,3.93-5.26,13.67-4.18,27.36-8.31,41.05-12.43,2.92-.88,4.76.57,4.77,3.69.02,10.83,0,21.67,0,32.5h-.5Zm-164.37,41.22c3.33,0,6.65.05,9.98-.02,2.86-.06,4.58-1.75,4.61-4.62.05-4.37.33-8.78-.17-13.1-.53-4.66-1.26-9.46-2.93-13.8-2.9-7.54-8.66-12.13-16.9-12.98-8-.83-14.57,1.88-19.27,8.55-4.35,6.17-5.76,13.11-5.11,20.54.56,6.42,4.05,10.63,9.87,13.11,6.42,2.74,13.19,2.32,19.92,2.31Z"/>
      <path class="cls-1" d="m10.25,307.53c0-24.43,0-48.86,0-73.28,0-4.54,1.58-5.6,5.73-3.88,12.95,5.37,25.9,10.74,38.85,16.11,4.35,1.8,5.35,3.28,5.35,7.92,0,40.02-.01,80.03.03,120.05,0,2.64.11,5.33.62,7.91,1.17,5.87,5.11,9.35,11.1,9.41,4.13.04,8.34-.42,12.39-1.27,5.09-1.06,8.48-4.48,10.28-9.35,2.93-7.9,5.63-15.89,8.72-23.73,4.6-11.67,10.95-22.27,19.92-31.19,13.87-13.79,30.74-19.75,50.08-19.12,10.66.35,20.86,2.65,30.19,8.05,12.74,7.38,21.36,18.4,27.21,31.62,9.65,21.84,10.58,44.35,3.4,66.96-5.14,16.18-15.67,27.96-31.86,34.14-7.97,3.04-16.23,3.58-24.65,2.91-19.95-1.58-37.71-9.51-55-18.84-1.17-.63-2.28-1.65-3.51-1.81-1.93-.26-4.47-.7-5.84.25-9.24,6.41-19.66,8.69-30.57,9.52-14.99,1.13-29.35-1.11-42.63-8.51-16.16-9-25.34-23.01-28.62-40.99-.76-4.18-1.14-8.48-1.16-12.73-.11-23.38-.05-46.76-.05-70.15Zm182.64,79.21c-.81-9.05-2.97-17.28-8.75-24.22-4.69-5.63-10.53-8.64-18.06-6.66-4.36,1.15-7.84,3.71-10.7,7.17-4.89,5.9-7.44,12.93-9.68,20.1-1.42,4.54-.8,6.2,3.16,8.8,9.82,6.47,20.65,10.27,32.2,12.14,4.24.69,7.06-.7,8.51-4.81,1.43-4.06,2.25-8.34,3.33-12.52Z"/>
      <path class="cls-1" d="m220.52,93.21c0,13.21.07,26.43-.02,39.64-.11,15.12-2.13,29.91-8.67,43.75-9.71,20.55-26.4,32.78-47.65,39.36-13.62,4.22-27.64,5.86-41.86,5.76-11.69-.08-23.43.28-35.05-.68-25.62-2.11-48.4-11.02-65.87-30.72-11.37-12.83-17.89-28.03-20.26-44.97-3.44-24.59,1.26-48.18,9.39-71.24,2.74-7.76,6.09-15.3,9.3-22.89,1.64-3.88,3.34-4.43,7.12-2.78,11.8,5.17,23.6,10.35,35.4,15.52,4.07,1.78,4.7,3.54,2.87,7.51-6.81,14.78-12.24,30.01-14.39,46.22-1.3,9.84-1.62,19.74,1.82,29.29,5.06,14.06,15.51,21.94,29.86,24.62,6.39,1.19,12.99,1.73,19.5,1.8,11.21.13,22.44.01,33.62-.7,5.5-.35,11.03-1.84,16.31-3.55,9.41-3.05,14.74-10.13,16.77-19.55,1.07-4.98,1.73-10.15,1.76-15.24.16-29.09.08-58.18.08-87.26,0-4.77,1.31-6.11,5.97-6.11,12.74,0,25.48,0,38.22,0,4.33,0,5.79,1.45,5.79,5.75,0,15.49,0,30.99,0,46.48Z"/>
      <path class="cls-1" d="m87.27,29.31c.81-1.25,1.34-2.48,2.23-3.35,8.26-8.12,16.57-16.19,24.9-24.25,2.37-2.29,4.25-2.29,6.64,0,8.52,8.13,17.02,16.27,25.51,24.43,2.84,2.74,2.86,4.14.04,6.84-8.49,8.16-17,16.29-25.53,24.41-2.25,2.14-3.94,2.17-6.18,0-8.53-8.25-17.03-16.54-25.49-24.86-.82-.81-1.3-1.97-2.1-3.23Z"/>
      <path class="cls-1" d="m384.23,208.05c1.24.77,2.41,1.24,3.25,2.05,7.96,7.62,15.88,15.28,23.77,22.97,2.36,2.3,2.36,4.28,0,6.59-7.74,7.57-15.52,15.11-23.31,22.62-2.33,2.25-4.24,2.21-6.64-.11-7.64-7.4-15.26-14.82-22.86-22.27-2.69-2.63-2.65-4.52.04-7.22,7.39-7.39,14.77-14.78,22.21-22.12.97-.95,2.24-1.6,3.54-2.52Z"/>
      <path class="cls-1" d="m476.1,236.24c-.86,1.33-1.37,2.56-2.25,3.42-7.72,7.58-15.48,15.12-23.28,22.62-2.43,2.34-4.16,2.27-6.61-.09-7.64-7.39-15.26-14.8-22.86-22.24-2.7-2.65-2.71-4.57-.04-7.24,7.38-7.39,14.77-14.76,22.18-22.11,2.59-2.58,4.49-2.64,7.07-.17,7.76,7.4,15.5,14.82,23.2,22.29.96.93,1.62,2.18,2.59,3.52Z"/>
    </g>
  </g>
</svg>