<?xml version="1.0" encoding="UTF-8"?>
<svg id="Layer_1" data-name="Layer 1" xmlns="http://www.w3.org/2000/svg" viewBox="0 0 874.38 1081.93">
  <defs>
    <style>
      .cls-1 {
        fill: #ffb900;
      }
    </style>
  </defs>
  <path d="M462.24,256.24v802.7c0,12.7-10.29,22.99-22.99,22.99h-35.08V348.86c0-5.31-5.75-8.63-10.35-5.97L75.32,526.77c-10.67,6.16-17.24,17.54-17.24,29.87v525.3H22.99c-12.7,0-22.99-10.29-22.99-22.99V536.37c0-20.54,10.96-39.52,28.75-49.78l20.61-11.89,354.81-204.84,40.83-23.57c7.66-4.42,17.24,1.11,17.24,9.96Z"/>
  <path class="cls-1" d="M689.68,11.51V1058.94c0,12.7-10.29,22.99-22.99,22.99h-35.08V104.16c0-5.31-5.75-8.63-10.35-5.97l-316.71,182.84c-10.67,6.16-17.24,17.54-17.24,29.87v771.04h-35.08c-12.7,0-22.99-10.29-22.99-22.99V290.62c0-20.53,10.95-39.5,28.73-49.77l29.34-16.95L631.61,25.12,672.44,1.56c7.66-4.42,17.24,1.11,17.24,9.96Z"/>
  <path d="M874.38,700.9v358.04c0,12.7-10.29,22.99-22.99,22.99h-35.11v-360.78c0-12.32-6.57-23.7-17.24-29.86l-190.77-110.15c-4.6-2.65-10.35,.66-10.35,5.97v494.82h-35.11c-12.7,0-22.99-10.29-22.99-22.99V494.47c0-8.85,9.58-14.38,17.24-9.95l40.85,23.59,218.36,126.08,29.36,16.95c17.78,10.27,28.74,29.24,28.74,49.77Z"/>
</svg>